<?xml version="1.0" encoding="UTF-8" standalone="no"?>
<!-- Created with Inkscape (http://www.inkscape.org/) -->

<svg
   xmlns:dc="http://purl.org/dc/elements/1.1/"
   xmlns:cc="http://creativecommons.org/ns#"
   xmlns:rdf="http://www.w3.org/1999/02/22-rdf-syntax-ns#"
   xmlns:svg="http://www.w3.org/2000/svg"
   xmlns="http://www.w3.org/2000/svg"
   xmlns:sodipodi="http://sodipodi.sourceforge.net/DTD/sodipodi-0.dtd"
   xmlns:inkscape="http://www.inkscape.org/namespaces/inkscape"
   width="192.00002"
   height="192.00002"
   viewBox="0 0 50.799998 50.800005"
   version="1.1"
   id="svg8"
   inkscape:version="0.92.2 2405546, 2018-03-11"
   sodipodi:docname="icon.svg"
   inkscape:export-filename="/home/yeison/Development/radiant/BrythonApp/android/static/images/icon.png"
   inkscape:export-xdpi="256"
   inkscape:export-ydpi="256">
  <defs
     id="defs2" />
  <sodipodi:namedview
     id="base"
     pagecolor="#ffffff"
     bordercolor="#666666"
     borderopacity="1.0"
     inkscape:pageopacity="0.0"
     inkscape:pageshadow="2"
     inkscape:zoom="1.4466145"
     inkscape:cx="232.81395"
     inkscape:cy="33.81095"
     inkscape:document-units="px"
     inkscape:current-layer="layer1"
     showgrid="false"
     units="px"
     showguides="true"
     inkscape:guide-bbox="true"
     inkscape:snap-bbox="true"
     inkscape:bbox-paths="true"
     inkscape:snap-bbox-edge-midpoints="true"
     inkscape:bbox-nodes="true"
     inkscape:snap-bbox-midpoints="true"
     fit-margin-top="0"
     fit-margin-left="1.6"
     fit-margin-right="0"
     fit-margin-bottom="0"
     inkscape:showpageshadow="false"
     inkscape:window-width="2036"
     inkscape:window-height="865"
     inkscape:window-x="-322"
     inkscape:window-y="24"
     inkscape:window-maximized="1"
     inkscape:snap-global="false">
    <sodipodi:guide
       position="150.64594,151.34166"
       orientation="0,1"
       inkscape:locked="false"
       id="guide4571" />
    <sodipodi:guide
       position="75.670839,104.77501"
       orientation="0,1"
       inkscape:locked="false"
       id="guide4583" />
    <inkscape:grid
       type="xygrid"
       id="grid4591"
       originx="7.539062e-07"
       originy="-1.8645014e-06"
       empspacing="4" />
  </sodipodi:namedview>
  <metadata
     id="metadata5">
    <rdf:RDF>
      <cc:Work
         rdf:about="">
        <dc:format>image/svg+xml</dc:format>
        <dc:type
           rdf:resource="http://purl.org/dc/dcmitype/StillImage" />
        <dc:title></dc:title>
      </cc:Work>
    </rdf:RDF>
  </metadata>
  <g
     inkscape:label="Layer 1"
     inkscape:groupmode="layer"
     id="layer1"
     transform="translate(303.17926,-224.44861)">
    <rect
       style="opacity:1;fill:#4db6ac;fill-opacity:1;stroke:none;stroke-width:1;stroke-linecap:butt;stroke-linejoin:bevel;stroke-miterlimit:4;stroke-dasharray:1.9999999, 0.99999995;stroke-dashoffset:0;stroke-opacity:1;paint-order:fill markers stroke"
       id="rect850"
       width="50.800003"
       height="50.799992"
       x="-303.17926"
       y="224.44861"
       ry="25.399996"
       inkscape:export-xdpi="256"
       inkscape:export-ydpi="256" />
    <g
       id="g860"
       transform="matrix(0.88329842,0,0,0.88329842,-33.118397,29.85885)">
      <g
         aria-label="R"
         style="font-style:normal;font-variant:normal;font-weight:normal;font-stretch:normal;font-size:42.61263657px;line-height:1.25;font-family:'Circular Abstracts';-inkscape-font-specification:'Circular Abstracts';letter-spacing:0px;word-spacing:0px;fill:#37827b;fill-opacity:1;stroke:none;stroke-width:1.06531596"
         id="text854">
        <path
           d="m -278.36187,233.70242 h 1.24842 c 3.20427,0 6.17273,1.52584 8.90538,4.57753 1.77553,2.35812 2.66329,4.71624 2.66329,7.07437 v 1.24841 c 0,3.13491 -1.4981,6.07563 -4.4943,8.82215 l -1.91424,1.33165 c 0.99873,0.34678 2.33038,1.48423 3.99493,3.41234 1.55359,2.34425 2.33038,4.25848 2.33038,5.74271 l -0.0832,0.0832 h -2.74652 c -0.0832,-0.0139 -0.30517,-0.70743 -0.66582,-2.08069 -0.99873,-2.21941 -2.6078,-3.85623 -4.82721,-4.91044 -1.34552,-0.61034 -3.20427,-0.91551 -5.57626,-0.91551 -1.80327,-0.33291 -3.3846,-0.91551 -4.74399,-1.74778 -0.86002,-0.54098 -1.58133,-1.15132 -2.16392,-1.83102 l 1.99746,-1.91423 h 0.0832 c 2.03908,1.77553 4.23075,2.66329 6.575,2.66329 2.802,0 5.24335,-1.19293 7.32405,-3.5788 1.33164,-1.70617 1.99746,-3.64816 1.99746,-5.82595 0,-3.81461 -1.96972,-6.69984 -5.90917,-8.65569 -1.24842,-0.38839 -2.41361,-0.58259 -3.49557,-0.58259 -3.81461,0 -6.67209,1.94198 -8.57246,5.82594 -0.44388,1.01261 -0.66582,2.53845 -0.66582,4.57753 v 18.80949 l -0.16646,0.16645 h -2.58006 l -0.16646,-0.16645 v -20.47404 c 0,-0.5247 0.0375,-1.04065 0.11251,-1.54785 0.42471,-2.87177 2.05176,-5.463 4.88116,-7.77367 2.26102,-1.55359 4.48043,-2.33038 6.65822,-2.33038 z"
           style="font-style:normal;font-variant:normal;font-weight:normal;font-stretch:normal;font-family:alberto;-inkscape-font-specification:alberto;fill:#37827b;fill-opacity:1;stroke-width:1.06531596"
           id="path865"
           inkscape:connector-curvature="0"
           sodipodi:nodetypes="cscsscccccccccccccscscscsccccssccc" />
      </g>
      <g
         aria-label="R"
         style="font-style:normal;font-variant:normal;font-weight:normal;font-stretch:normal;font-size:42.61263657px;line-height:1.25;font-family:'Circular Abstracts';-inkscape-font-specification:'Circular Abstracts';letter-spacing:0px;word-spacing:0px;fill:#ffffff;fill-opacity:1;stroke:none;stroke-width:1.06531596"
         id="text840">
        <path
           d="m -276.77434,232.1149 h 1.24842 q 4.8064,0 8.90537,4.57753 2.66329,3.53718 2.66329,7.07436 v 1.24842 q 0,4.70237 -4.4943,8.82215 l -1.91424,1.33164 q 1.4981,0.52017 3.99493,3.41234 2.33038,3.51638 2.33038,5.74272 l -0.0832,0.0832 h -2.74652 q -0.12484,-0.0208 -0.66582,-2.0807 -1.4981,-3.32911 -4.82722,-4.91044 -2.01827,-0.9155 -5.57626,-0.9155 -2.7049,-0.49937 -4.74399,-1.74779 -1.29003,-0.81147 -2.16392,-1.83101 l 1.99747,-1.91424 h 0.0832 q 3.05862,2.66329 6.57499,2.66329 4.20301,0 7.32405,-3.57879 1.99747,-2.55926 1.99747,-5.82595 0,-5.72191 -5.90918,-8.65569 -1.87262,-0.5826 -3.49556,-0.5826 -5.72192,0 -8.57247,5.82595 -0.66582,1.51891 -0.66582,4.57753 v 18.80948 l -0.16646,0.16646 h -2.58006 l -0.16645,-0.16646 v -20.47404 q 0,-5.24335 4.99366,-9.32151 3.39154,-2.33038 6.65823,-2.33038 z"
           style="font-style:normal;font-variant:normal;font-weight:normal;font-stretch:normal;font-family:alberto;-inkscape-font-specification:alberto;fill:#ffffff;stroke-width:1.06531596"
           id="path862" />
      </g>
    </g>
  </g>
</svg>
