<?xml version="1.0" encoding="iso-8859-1"?>
<!-- Generator: Adobe Illustrator 19.0.0, SVG Export Plug-In . SVG Version: 6.00 Build 0)  -->
<svg xmlns="http://www.w3.org/2000/svg" xmlns:xlink="http://www.w3.org/1999/xlink" version="1.1" id="Layer_1" x="0px" y="0px" viewBox="0 0 485 485" style="enable-background:new 0 0 485 485;" xml:space="preserve" width="512px" height="512px">
<g>
	<path d="M0,89.331v306.338h485V89.331H0z M455,365.669H30V119.331h425V365.669z" fill="#FFFFFF"/>
	<path d="M190,327.5c19.791,0,38.009-6.818,52.471-18.203C257.344,320.992,275.82,327.5,295,327.5c46.869,0,85-38.131,85-85   s-38.131-85-85-85c-19.181,0-37.657,6.507-52.529,18.203C228.009,164.318,209.791,157.5,190,157.5c-46.869,0-85,38.131-85,85   S143.131,327.5,190,327.5z M350,242.5c0,30.327-24.673,55-55,55c-11.78,0-23.153-3.799-32.511-10.664   c7.93-12.917,12.511-28.1,12.511-44.336c0-16.236-4.582-31.419-12.512-44.336c9.359-6.865,20.731-10.664,32.512-10.664   C325.327,187.5,350,212.173,350,242.5z" fill="#FFFFFF"/>
</g>
<g>
</g>
<g>
</g>
<g>
</g>
<g>
</g>
<g>
</g>
<g>
</g>
<g>
</g>
<g>
</g>
<g>
</g>
<g>
</g>
<g>
</g>
<g>
</g>
<g>
</g>
<g>
</g>
<g>
</g>
</svg>
