<?xml version="1.0" standalone="no"?>
<!DOCTYPE svg PUBLIC "-//W3C//DTD SVG 20010904//EN"
 "http://www.w3.org/TR/2001/REC-SVG-20010904/DTD/svg10.dtd">
<svg version="1.0" xmlns="http://www.w3.org/2000/svg"
 width="1080.000000pt" height="1080.000000pt" viewBox="0 0 1080.000000 1080.000000"
 preserveAspectRatio="xMidYMid meet">
<metadata>
Created by potrace 1.15, written by Peter Selinger 2001-2017
</metadata>
<g transform="translate(0.000000,1080.000000) scale(0.100000,-0.100000)"
fill="#000000" stroke="none">
<path d="M5056 10658 c-9 -12 -16 -30 -16 -39 0 -17 -29 -97 -61 -165 -10 -23
-19 -49 -19 -58 0 -9 -6 -29 -14 -44 -8 -15 -41 -103 -74 -197 -33 -93 -74
-204 -90 -245 -17 -41 -56 -147 -88 -235 -31 -88 -66 -180 -76 -205 -11 -25
-30 -76 -43 -115 -29 -86 -77 -216 -160 -435 -20 -52 -45 -124 -56 -160 -12
-36 -26 -74 -32 -85 -11 -20 -32 -75 -66 -175 -11 -30 -33 -91 -49 -135 -16
-44 -57 -156 -91 -250 -34 -93 -77 -208 -95 -255 -19 -47 -50 -132 -70 -190
-21 -58 -44 -123 -52 -145 -86 -223 -119 -312 -141 -380 -14 -44 -28 -84 -32
-90 -8 -11 -39 -93 -97 -255 -21 -58 -56 -154 -79 -215 -23 -60 -49 -130 -58
-155 -8 -25 -31 -88 -51 -140 -20 -52 -47 -126 -60 -165 -14 -38 -40 -113 -60
-165 -19 -52 -67 -183 -106 -290 -39 -107 -86 -233 -105 -280 -18 -47 -56
-150 -85 -230 -28 -80 -58 -159 -66 -177 -7 -17 -14 -35 -14 -40 -1 -4 -9 -26
-20 -48 -11 -22 -19 -45 -20 -51 0 -11 -23 -73 -89 -249 -79 -206 -131 -349
-131 -357 0 -5 -22 -67 -49 -136 -58 -149 -181 -483 -211 -574 -12 -34 -41
-112 -65 -173 -23 -60 -66 -173 -93 -250 -28 -77 -63 -171 -78 -210 -55 -145
-76 -202 -100 -275 -14 -41 -32 -89 -40 -107 -8 -17 -14 -34 -14 -38 0 -4 -8
-26 -18 -49 -11 -23 -29 -70 -42 -106 -76 -218 -119 -331 -130 -345 -4 -5 -11
-26 -15 -45 -4 -19 -21 -69 -37 -110 -48 -124 -75 -199 -119 -325 -74 -214
-159 -395 -253 -537 -90 -137 -294 -344 -351 -356 -8 -2 -15 -7 -15 -12 0 -20
-235 -120 -281 -120 -51 0 -59 -24 -59 -168 0 -72 4 -133 10 -137 11 -7 2691
-7 2699 0 2 3 4 65 2 138 -2 151 -2 151 -84 161 -72 9 -200 48 -272 84 -78 39
-168 130 -205 207 -82 171 -68 343 54 680 20 55 43 120 51 145 8 25 33 97 55
160 22 63 49 142 60 175 11 33 35 105 55 160 20 55 47 132 60 170 13 39 33 95
44 125 39 106 92 255 106 300 26 84 82 246 92 266 6 10 32 84 58 164 98 295
113 332 134 353 l22 22 1470 3 c809 1 1485 -2 1502 -6 39 -10 34 0 162 -302
69 -163 141 -330 165 -385 10 -22 28 -65 40 -95 12 -30 50 -120 85 -200 34
-80 73 -170 85 -200 23 -58 52 -124 75 -175 8 -16 24 -57 36 -90 12 -33 28
-69 35 -80 6 -11 15 -31 19 -45 4 -14 27 -66 50 -116 24 -50 46 -102 50 -115
7 -23 61 -151 90 -214 49 -107 66 -149 89 -220 81 -260 53 -456 -87 -596 -93
-92 -204 -141 -397 -174 -56 -9 -89 -20 -97 -32 -15 -19 -18 -239 -5 -260 12
-19 3202 -20 3213 -1 10 16 -1 260 -13 275 -5 6 -32 14 -61 18 -125 16 -319
106 -427 198 -58 50 -144 133 -170 167 -14 18 -36 46 -50 63 -48 59 -100 158
-187 357 -25 58 -57 130 -70 160 -24 53 -36 78 -116 250 -19 41 -44 100 -57
130 -22 56 -52 123 -97 220 -14 30 -32 69 -39 85 -7 17 -38 83 -68 147 -31 64
-56 122 -56 128 0 5 -4 18 -9 28 -5 9 -23 46 -39 82 -16 36 -48 104 -71 152
-22 48 -41 90 -41 94 0 12 -63 150 -80 174 -9 14 -23 43 -30 65 -7 22 -26 69
-43 105 -16 36 -40 90 -54 120 -13 30 -35 75 -48 100 -12 25 -26 56 -30 70 -4
14 -23 59 -42 100 -19 41 -41 89 -48 105 -7 17 -30 66 -51 110 -20 44 -52 115
-70 158 -19 42 -49 112 -68 155 -31 73 -84 188 -126 277 -43 90 -90 195 -90
200 0 6 -13 36 -80 180 -60 131 -78 170 -85 195 -4 14 -20 48 -35 75 -15 28
-41 84 -58 125 -29 72 -113 258 -131 291 -5 8 -21 47 -36 85 -15 38 -32 74
-36 80 -5 6 -15 28 -23 50 -8 21 -35 84 -61 139 -25 55 -52 114 -60 130 -7 17
-36 77 -63 135 -28 58 -62 136 -76 173 -14 37 -32 80 -40 95 -9 15 -28 56 -44
92 -16 36 -39 86 -51 112 -11 26 -21 49 -21 52 0 3 -17 43 -39 88 -72 155 -91
197 -91 202 0 6 -85 189 -109 236 -10 19 -22 46 -26 60 -4 14 -21 54 -37 90
-17 36 -41 90 -55 120 -69 153 -136 298 -148 320 -7 14 -25 55 -38 90 -14 36
-44 106 -67 155 -23 50 -52 113 -65 140 -12 28 -39 85 -59 128 -20 42 -36 80
-36 83 0 5 -22 55 -70 159 -15 33 -39 87 -54 120 -15 33 -36 77 -47 97 -11 20
-29 63 -39 94 -11 31 -24 62 -29 68 -4 6 -27 54 -49 106 -22 52 -61 139 -86
192 -25 53 -46 99 -46 102 0 5 -15 39 -90 201 -10 22 -46 103 -80 180 -34 77
-70 158 -80 180 -10 22 -39 85 -63 140 -25 55 -61 134 -80 175 -86 184 -97
210 -97 216 0 6 -167 380 -193 434 -17 33 -41 36 -61 8z m-22 -3337 c10 -11
23 -39 31 -63 7 -23 33 -88 58 -143 24 -55 48 -111 51 -125 4 -14 19 -50 33
-80 14 -30 32 -68 39 -85 7 -16 31 -72 53 -123 23 -50 41 -95 41 -98 0 -8 42
-106 86 -200 19 -40 47 -107 63 -150 16 -44 36 -92 44 -109 23 -45 77 -172 77
-180 0 -3 14 -35 30 -70 17 -35 30 -70 30 -78 0 -7 4 -17 9 -22 5 -6 28 -55
50 -110 23 -55 53 -125 66 -155 49 -110 99 -228 145 -340 83 -200 160 -384
180 -425 49 -106 130 -298 136 -321 4 -15 20 -50 35 -80 30 -55 36 -88 20 -99
-5 -3 -537 -5 -1183 -5 -1022 0 -1174 2 -1187 15 -13 13 -12 22 8 77 40 105
90 250 110 313 11 33 35 105 54 160 20 55 74 210 120 345 46 135 99 288 117
340 18 52 43 120 56 152 12 31 30 87 39 125 9 37 27 91 39 118 27 59 43 102
62 170 7 28 18 59 23 70 6 11 31 83 57 160 26 77 65 190 86 250 21 61 48 142
60 180 11 39 26 81 33 95 21 42 55 134 55 151 0 16 33 116 54 164 8 17 19 55
26 85 24 105 55 134 94 91z"/>
</g>
</svg>
