<?xml version="1.0" encoding="UTF-8" standalone="no"?>
<!-- Created with Inkscape (http://www.inkscape.org/) -->

<svg
   xmlns:dc="http://purl.org/dc/elements/1.1/"
   xmlns:cc="http://creativecommons.org/ns#"
   xmlns:rdf="http://www.w3.org/1999/02/22-rdf-syntax-ns#"
   xmlns:svg="http://www.w3.org/2000/svg"
   xmlns="http://www.w3.org/2000/svg"
   xmlns:sodipodi="http://sodipodi.sourceforge.net/DTD/sodipodi-0.dtd"
   xmlns:inkscape="http://www.inkscape.org/namespaces/inkscape"
   width="8in"
   height="14.229167in"
   viewBox="0 0 203.20001 361.42085"
   version="1.1"
   id="svg8"
   inkscape:version="0.92.2 2405546, 2018-03-11"
   sodipodi:docname="splash.svg">
  <defs
     id="defs2" />
  <sodipodi:namedview
     id="base"
     pagecolor="#ffffff"
     bordercolor="#666666"
     borderopacity="1.0"
     inkscape:pageopacity="0.0"
     inkscape:pageshadow="2"
     inkscape:zoom="0.35"
     inkscape:cx="122.09955"
     inkscape:cy="68.639221"
     inkscape:document-units="px"
     inkscape:current-layer="text829"
     showgrid="false"
     units="in"
     showborder="true"
     inkscape:showpageshadow="false"
     inkscape:lockguides="true"
     fit-margin-top="0"
     fit-margin-left="0"
     fit-margin-right="0"
     fit-margin-bottom="0"
     inkscape:window-width="1916"
     inkscape:window-height="1025"
     inkscape:window-x="0"
     inkscape:window-y="31"
     inkscape:window-maximized="1">
    <inkscape:grid
       type="xygrid"
       id="grid861" />
  </sodipodi:namedview>
  <metadata
     id="metadata5">
    <rdf:RDF>
      <cc:Work
         rdf:about="">
        <dc:format>image/svg+xml</dc:format>
        <dc:type
           rdf:resource="http://purl.org/dc/dcmitype/StillImage" />
        <dc:title></dc:title>
      </cc:Work>
    </rdf:RDF>
  </metadata>
  <g
     inkscape:label="Layer 1"
     inkscape:groupmode="layer"
     id="layer1"
     transform="translate(-1.5258789e-6,64.420883)">
    <rect
       style="opacity:1;fill:#4db6ac;fill-opacity:1;stroke:none;stroke-width:1.87689805;stroke-linecap:butt;stroke-linejoin:bevel;stroke-miterlimit:4;stroke-dasharray:3.75379581, 1.87689791;stroke-dashoffset:0;stroke-opacity:1;paint-order:fill markers stroke"
       id="rect821"
       width="203.2"
       height="361.42084"
       x="1.5258789e-06"
       y="-64.420883" />
    <g
       aria-label="A Python Framework for Android Apps Development"
       style="font-style:normal;font-variant:normal;font-weight:normal;font-stretch:normal;font-size:12.86903px;line-height:1.25;font-family:Ailerons;-inkscape-font-specification:Ailerons;letter-spacing:0px;word-spacing:0px;fill:#ffffff;fill-opacity:1;stroke:none;stroke-width:0.32172576"
       id="text829">
      <g
         id="g907"
         transform="translate(-1.1631515e-5,-30.238096)">
        <path
           id="path835"
           style="font-style:normal;font-variant:normal;font-weight:normal;font-stretch:normal;font-family:Simplifica;-inkscape-font-specification:Simplifica;fill:#ffffff;fill-opacity:1;stroke-width:0.32172576"
           d="m 14.825744,285.933 -0.604845,-2.72823 h -2.496591 l -0.604845,2.72823 h -0.437547 l 1.930355,-8.69946 h 0.720665 l 1.930355,8.69946 z m -3.011353,-3.15291 h 2.316425 L 12.972603,277.581 Z"
           inkscape:connector-curvature="0" />
        <path
           id="path837"
           style="font-style:normal;font-variant:normal;font-weight:normal;font-stretch:normal;font-family:Simplifica;-inkscape-font-specification:Simplifica;fill:#ffffff;fill-opacity:1;stroke-width:0.32172576"
           d="m 19.474681,277.23354 q 0.386071,0 0.707797,0.15443 0.334594,0.14156 0.579106,0.39894 0.257381,0.24451 0.39894,0.5791 0.141559,0.3346 0.141559,0.7078 v 1.77593 q 0,0.3732 -0.141559,0.69493 -0.12869,0.32172 -0.373202,0.56623 -0.231642,0.24451 -0.553368,0.39894 -0.308857,0.15443 -0.66919,0.18017 h -0.06434 -0.05148 -1.248296 V 285.933 H 17.77597 v -8.69946 h 0.218774 0.205904 z m 1.402724,1.84027 q 0,-0.28312 -0.115821,-0.5405 -0.115821,-0.25738 -0.308857,-0.45041 -0.193035,-0.19304 -0.450416,-0.30886 -0.25738,-0.11582 -0.553368,-0.11582 h -1.248296 v 4.60711 h 1.274034 q 0.295988,0 0.553368,-0.11582 0.257381,-0.11582 0.437547,-0.30886 0.193036,-0.19303 0.295988,-0.43754 0.115821,-0.25738 0.115821,-0.55337 z"
           inkscape:connector-curvature="0" />
        <path
           id="path839"
           style="font-style:normal;font-variant:normal;font-weight:normal;font-stretch:normal;font-family:Simplifica;-inkscape-font-specification:Simplifica;fill:#ffffff;fill-opacity:1;stroke-width:0.32172576"
           d="m 25.214068,279.58857 h 0.437547 l -2.252081,9.2271 h -0.437547 l 0.66919,-2.77971 -1.814533,-6.44739 h 0.437547 l 1.58289,5.6109 z"
           inkscape:connector-curvature="0" />
        <path
           id="path841"
           style="font-style:normal;font-variant:normal;font-weight:normal;font-stretch:normal;font-family:Simplifica;-inkscape-font-specification:Simplifica;fill:#ffffff;fill-opacity:1;stroke-width:0.32172576"
           d="m 26.595678,282.75435 v 1.51855 q 0,0.27025 0.09008,0.51476 0.09008,0.23164 0.244511,0.41181 0.154429,0.1673 0.360333,0.27025 0.205905,0.10295 0.437547,0.10295 v 0.42468 q -0.321726,0 -0.604844,-0.12869 -0.283119,-0.14156 -0.501892,-0.3732 -0.205905,-0.23165 -0.334595,-0.5405 Q 26.171,284.63323 26.171,284.2729 v -1.51855 -2.7411 -0.42468 -1.80166 h 0.424678 v 1.80166 h 1.389856 v 0.42468 h -1.389856 z"
           inkscape:connector-curvature="0" />
        <path
           id="path843"
           style="font-style:normal;font-variant:normal;font-weight:normal;font-stretch:normal;font-family:Simplifica;-inkscape-font-specification:Simplifica;fill:#ffffff;fill-opacity:1;stroke-width:0.32172576"
           d="m 30.358663,279.52423 q 0.360332,0 0.669189,0.14156 0.321726,0.12869 0.553368,0.36033 0.231643,0.23164 0.360333,0.55337 0.14156,0.30885 0.14156,0.66919 v 1.50567 3.17865 h -0.424678 v -3.17865 -1.50567 q 0,-0.27025 -0.102953,-0.50189 -0.102952,-0.24452 -0.283118,-0.41181 -0.167298,-0.18017 -0.411809,-0.28312 -0.231643,-0.10295 -0.501892,-0.10295 -0.27025,0 -0.514762,0.10295 -0.231642,0.10295 -0.411809,0.28312 -0.167297,0.16729 -0.270249,0.41181 -0.102953,0.23164 -0.102953,0.50189 v 1.50567 3.17865 h -0.424678 v -3.17865 -1.50567 -4.54277 h 0.424678 v 3.41029 q 0.244512,-0.28312 0.579107,-0.43754 0.334595,-0.15443 0.720666,-0.15443 z"
           inkscape:connector-curvature="0" />
        <path
           id="path845"
           style="font-style:normal;font-variant:normal;font-weight:normal;font-stretch:normal;font-family:Simplifica;-inkscape-font-specification:Simplifica;fill:#ffffff;fill-opacity:1;stroke-width:0.32172576"
           d="m 34.706988,285.99735 q -0.360333,0 -0.682058,-0.12869 -0.308857,-0.14156 -0.5405,-0.3732 -0.231642,-0.23165 -0.373201,-0.5405 -0.128691,-0.32173 -0.128691,-0.68206 v -3.02422 q 0,-0.36034 0.128691,-0.66919 0.141559,-0.32173 0.373201,-0.55337 0.231643,-0.23164 0.5405,-0.36033 0.321725,-0.14156 0.682058,-0.14156 0.360333,0 0.66919,0.14156 0.321726,0.12869 0.553368,0.36033 0.231643,0.23164 0.360333,0.55337 0.141559,0.30885 0.141559,0.66919 v 3.02422 q 0,0.36033 -0.141559,0.68206 -0.12869,0.30885 -0.360333,0.5405 -0.231642,0.23164 -0.553368,0.3732 -0.308857,0.12869 -0.66919,0.12869 z m 0,-6.04844 q -0.270249,0 -0.514761,0.10295 -0.231642,0.10295 -0.411809,0.28312 -0.167297,0.16729 -0.27025,0.41181 -0.102952,0.23164 -0.102952,0.50189 v 3.02422 q 0,0.27025 0.102952,0.51476 0.102953,0.23164 0.27025,0.41181 0.180167,0.1673 0.411809,0.27025 0.244512,0.10295 0.514761,0.10295 0.27025,0 0.501892,-0.10295 0.244512,-0.10295 0.411809,-0.27025 0.180167,-0.18017 0.283119,-0.41181 0.102952,-0.24451 0.102952,-0.51476 v -3.02422 q 0,-0.27025 -0.102952,-0.50189 -0.102952,-0.24452 -0.283119,-0.41181 -0.167297,-0.18017 -0.411809,-0.28312 -0.231642,-0.10295 -0.501892,-0.10295 z"
           inkscape:connector-curvature="0" />
        <path
           id="path847"
           style="font-style:normal;font-variant:normal;font-weight:normal;font-stretch:normal;font-family:Simplifica;-inkscape-font-specification:Simplifica;fill:#ffffff;fill-opacity:1;stroke-width:0.32172576"
           d="m 39.055312,279.52423 q 0.360333,0 0.66919,0.14156 0.321725,0.12869 0.553368,0.36033 0.231642,0.23164 0.360333,0.55337 0.141559,0.30885 0.141559,0.66919 v 1.50567 3.17865 h -0.424678 v -3.17865 -1.50567 q 0,-0.27025 -0.102952,-0.50189 -0.102952,-0.24452 -0.283119,-0.41181 -0.167297,-0.18017 -0.411809,-0.28312 -0.231642,-0.10295 -0.501892,-0.10295 -0.27025,0 -0.514761,0.10295 -0.231643,0.10295 -0.411809,0.28312 -0.167297,0.16729 -0.27025,0.41181 -0.102952,0.23164 -0.102952,0.50189 v 1.50567 3.17865 h -0.424678 v -3.17865 -1.50567 -1.66011 h 0.424678 v 0.52763 q 0.244512,-0.28312 0.579106,-0.43754 0.334595,-0.15443 0.720666,-0.15443 z"
           inkscape:connector-curvature="0" />
        <path
           id="path849"
           style="font-style:normal;font-variant:normal;font-weight:normal;font-stretch:normal;font-family:Simplifica;-inkscape-font-specification:Simplifica;fill:#ffffff;fill-opacity:1;stroke-width:0.32172576"
           d="m 47.049392,277.67109 h -2.959877 v 3.2816 h 2.432247 v 0.42468 h -2.432247 v 4.55563 h -0.424678 v -8.69946 0 h 0.424678 2.959877 z"
           inkscape:connector-curvature="0" />
        <path
           id="path851"
           style="font-style:normal;font-variant:normal;font-weight:normal;font-stretch:normal;font-family:Simplifica;-inkscape-font-specification:Simplifica;fill:#ffffff;fill-opacity:1;stroke-width:0.32172576"
           d="m 49.985542,279.52423 v 0.42468 H 49.48365 q -0.270249,0 -0.501892,0.10295 -0.231642,0.10295 -0.411809,0.28312 -0.180166,0.16729 -0.283119,0.41181 -0.102952,0.23164 -0.102952,0.50189 v 1.50567 3.17865 H 47.7592 v -3.17865 -1.50567 -1.23543 h -0.424678 v -0.42468 h 0.424678 0.424678 v 0.42468 0.10295 q 0.489023,-0.56623 1.261165,-0.59197 z"
           inkscape:connector-curvature="0" />
        <path
           id="path853"
           style="font-style:normal;font-variant:normal;font-weight:normal;font-stretch:normal;font-family:Simplifica;-inkscape-font-specification:Simplifica;fill:#ffffff;fill-opacity:1;stroke-width:0.32172576"
           d="m 52.077566,279.52423 q 0.360333,0 0.656321,0.14156 0.295988,0.12869 0.501892,0.36033 0.218774,0.23164 0.334595,0.55337 0.12869,0.30885 0.12869,0.66919 v 1.50567 1.51855 1.6601 h -0.424678 v -0.52763 q -0.244511,0.27025 -0.579106,0.43755 -0.334595,0.15443 -0.720666,0.15443 -0.360333,0 -0.682059,-0.12869 -0.308856,-0.14156 -0.540499,-0.3732 -0.231642,-0.23165 -0.373202,-0.5405 -0.12869,-0.32173 -0.12869,-0.68206 v -0.36033 q 0,-0.79788 0.978046,-1.15822 0.115822,-0.0515 0.386071,-0.15442 0.283119,-0.10296 0.591976,-0.21878 0.321725,-0.12869 0.617713,-0.23164 0.295988,-0.11582 0.450416,-0.18017 v -0.72066 q 0,-0.5405 -0.334595,-0.9137 -0.321725,-0.38607 -0.862225,-0.38607 -0.270249,0 -0.501892,0.10295 -0.231642,0.10295 -0.411809,0.28312 -0.180166,0.16729 -0.283118,0.41181 -0.102953,0.23164 -0.102953,0.50189 h -0.424678 q 0,-0.36034 0.128691,-0.66919 0.141559,-0.32173 0.373201,-0.55337 0.231643,-0.23164 0.5405,-0.36033 0.321725,-0.14156 0.682058,-0.14156 z m 1.19682,3.23012 v -0.32172 q -0.193035,0.0772 -0.476154,0.18016 -0.283119,0.10296 -0.566237,0.21878 -0.283119,0.10295 -0.514762,0.19303 -0.231642,0.0901 -0.334594,0.12869 -0.244512,0.0901 -0.476154,0.27025 -0.231643,0.18017 -0.231643,0.48903 v 0.36033 q 0,0.27025 0.102952,0.51476 0.102953,0.23164 0.27025,0.41181 0.180166,0.1673 0.411809,0.27025 0.244511,0.10295 0.514761,0.10295 0.27025,0 0.501892,-0.10295 0.244512,-0.10295 0.411809,-0.27025 0.180167,-0.18017 0.283119,-0.41181 0.102952,-0.24451 0.102952,-0.51476 z"
           inkscape:connector-curvature="0" />
        <path
           id="path855"
           style="font-style:normal;font-variant:normal;font-weight:normal;font-stretch:normal;font-family:Simplifica;-inkscape-font-specification:Simplifica;fill:#ffffff;fill-opacity:1;stroke-width:0.32172576"
           d="m 59.34716,279.52423 q 0.360333,0 0.669189,0.14156 0.321726,0.12869 0.553369,0.36033 0.231642,0.23164 0.360333,0.55337 0.141559,0.30885 0.141559,0.66919 v 1.50567 3.17865 h -0.424678 v -3.17865 -1.50567 q 0,-0.27025 -0.102952,-0.50189 -0.102953,-0.24452 -0.283119,-0.41181 -0.167297,-0.18017 -0.411809,-0.28312 -0.231642,-0.10295 -0.501892,-0.10295 -0.27025,0 -0.501892,0.10295 -0.231643,0.10295 -0.411809,0.28312 -0.180167,0.16729 -0.283119,0.41181 -0.102952,0.23164 -0.102952,0.50189 v 1.50567 3.17865 H 57.62271 v -3.17865 -1.50567 q 0,-0.27025 -0.102952,-0.50189 -0.102953,-0.24452 -0.283119,-0.41181 -0.167297,-0.18017 -0.411809,-0.28312 -0.231642,-0.10295 -0.501892,-0.10295 -0.27025,0 -0.514761,0.10295 -0.231643,0.10295 -0.411809,0.28312 -0.167298,0.16729 -0.27025,0.41181 -0.102952,0.23164 -0.102952,0.50189 v 1.50567 3.17865 h -0.424678 v -3.17865 -1.50567 -1.66011 h 0.424678 v 0.52763 q 0.244511,-0.28312 0.579106,-0.43754 0.334595,-0.15443 0.720666,-0.15443 0.489023,0 0.887963,0.24451 0.411809,0.24451 0.630582,0.64345 0.218774,-0.39894 0.617714,-0.64345 0.39894,-0.24451 0.887963,-0.24451 z"
           inkscape:connector-curvature="0" />
        <path
           id="path857"
           style="font-style:normal;font-variant:normal;font-weight:normal;font-stretch:normal;font-family:Simplifica;-inkscape-font-specification:Simplifica;fill:#ffffff;fill-opacity:1;stroke-width:0.32172576"
           d="m 64.433844,282.40689 q -0.115822,0.0386 -0.386071,0.15443 -0.27025,0.10295 -0.591976,0.21877 -0.308856,0.11582 -0.604844,0.23164 -0.295988,0.11583 -0.463285,0.1673 v 1.09387 q 0,0.27025 0.102952,0.51476 0.102952,0.23164 0.27025,0.41181 0.180166,0.1673 0.411809,0.27025 0.244511,0.10295 0.514761,0.10295 0.270249,0 0.501892,-0.10295 0.244512,-0.10295 0.411809,-0.27025 0.180166,-0.18017 0.283119,-0.41181 0.102952,-0.24451 0.102952,-0.51476 h 0.424678 q 0,0.36033 -0.141559,0.68206 -0.128691,0.30885 -0.360333,0.5405 -0.231643,0.23164 -0.553369,0.3732 -0.308856,0.12869 -0.669189,0.12869 -0.360333,0 -0.682059,-0.12869 -0.308856,-0.14156 -0.540499,-0.3732 -0.231643,-0.23165 -0.373202,-0.5405 -0.12869,-0.32173 -0.12869,-0.68206 v -3.02422 q 0,-0.36034 0.12869,-0.66919 0.141559,-0.32173 0.373202,-0.55337 0.231643,-0.23164 0.540499,-0.36033 0.321726,-0.14156 0.682059,-0.14156 0.360333,0 0.669189,0.14156 0.321726,0.12869 0.553369,0.36033 0.231642,0.23164 0.360333,0.55337 0.141559,0.30885 0.141559,0.65632 v 0.0129 q 0,0.79788 -0.978046,1.15821 z m -0.746404,-2.45798 q -0.27025,0 -0.514761,0.10295 -0.231643,0.10295 -0.411809,0.28312 -0.167298,0.16729 -0.27025,0.41181 -0.102952,0.23164 -0.102952,0.50189 v 1.47994 q 0.193035,-0.0772 0.476154,-0.18017 0.283119,-0.11582 0.566237,-0.21877 0.283119,-0.10296 0.514761,-0.19304 0.244512,-0.0901 0.347464,-0.12869 0.231643,-0.0901 0.463285,-0.27025 0.231643,-0.18017 0.231643,-0.50189 0,-0.27025 -0.102952,-0.50189 -0.102953,-0.23165 -0.283119,-0.39894 -0.167297,-0.18017 -0.411809,-0.28312 -0.231643,-0.10295 -0.501892,-0.10295 z"
           inkscape:connector-curvature="0" />
        <path
           id="path859"
           style="font-style:normal;font-variant:normal;font-weight:normal;font-stretch:normal;font-family:Simplifica;-inkscape-font-specification:Simplifica;fill:#ffffff;fill-opacity:1;stroke-width:0.32172576"
           d="m 71.58762,279.58857 h 0.437547 l -1.441332,6.34443 h -0.630582 l -0.913701,-5.14761 -0.913701,5.14761 h -0.643452 l -1.428462,-6.34443 h 0.437547 l 1.299772,5.76533 1.029522,-5.76533 v 0 h 0.424678 0.01287 l 1.029523,5.76533 z"
           inkscape:connector-curvature="0" />
        <path
           id="path861"
           style="font-style:normal;font-variant:normal;font-weight:normal;font-stretch:normal;font-family:Simplifica;-inkscape-font-specification:Simplifica;fill:#ffffff;fill-opacity:1;stroke-width:0.32172576"
           d="m 74.193799,285.99735 q -0.360333,0 -0.682059,-0.12869 -0.308856,-0.14156 -0.540499,-0.3732 -0.231642,-0.23165 -0.373202,-0.5405 -0.12869,-0.32173 -0.12869,-0.68206 v -3.02422 q 0,-0.36034 0.12869,-0.66919 0.14156,-0.32173 0.373202,-0.55337 0.231643,-0.23164 0.540499,-0.36033 0.321726,-0.14156 0.682059,-0.14156 0.360333,0 0.669189,0.14156 0.321726,0.12869 0.553369,0.36033 0.231642,0.23164 0.360333,0.55337 0.141559,0.30885 0.141559,0.66919 v 3.02422 q 0,0.36033 -0.141559,0.68206 -0.128691,0.30885 -0.360333,0.5405 -0.231643,0.23164 -0.553369,0.3732 -0.308856,0.12869 -0.669189,0.12869 z m 0,-6.04844 q -0.27025,0 -0.514761,0.10295 -0.231643,0.10295 -0.411809,0.28312 -0.167298,0.16729 -0.27025,0.41181 -0.102952,0.23164 -0.102952,0.50189 v 3.02422 q 0,0.27025 0.102952,0.51476 0.102952,0.23164 0.27025,0.41181 0.180166,0.1673 0.411809,0.27025 0.244511,0.10295 0.514761,0.10295 0.27025,0 0.501892,-0.10295 0.244512,-0.10295 0.411809,-0.27025 0.180166,-0.18017 0.283119,-0.41181 0.102952,-0.24451 0.102952,-0.51476 v -3.02422 q 0,-0.27025 -0.102952,-0.50189 -0.102953,-0.24452 -0.283119,-0.41181 -0.167297,-0.18017 -0.411809,-0.28312 -0.231642,-0.10295 -0.501892,-0.10295 z"
           inkscape:connector-curvature="0" />
        <path
           id="path864"
           style="font-style:normal;font-variant:normal;font-weight:normal;font-stretch:normal;font-family:Simplifica;-inkscape-font-specification:Simplifica;fill:#ffffff;fill-opacity:1;stroke-width:0.32172576"
           d="m 79.343018,279.52423 v 0.42468 h -0.501892 q -0.27025,0 -0.501893,0.10295 -0.231642,0.10295 -0.411809,0.28312 -0.180166,0.16729 -0.283118,0.41181 -0.102952,0.23164 -0.102952,0.50189 v 1.50567 3.17865 h -0.424678 v -3.17865 -1.50567 -1.23543 h -0.424678 v -0.42468 h 0.424678 0.424678 v 0.42468 0.10295 q 0.489023,-0.56623 1.261164,-0.59197 z"
           inkscape:connector-curvature="0" />
        <path
           id="path866"
           style="font-style:normal;font-variant:normal;font-weight:normal;font-stretch:normal;font-family:Simplifica;-inkscape-font-specification:Simplifica;fill:#ffffff;fill-opacity:1;stroke-width:0.32172576"
           d="m 83.778006,285.933 h -0.501892 l -2.110521,-3.4489 H 80.53501 v 3.4489 h -0.424678 v -9.22709 h 0.424678 v 5.35352 h 0.617714 l 0.05148,-0.0257 1.647236,-2.44512 h 0.514761 l -1.814533,2.7025 2.226342,3.64193 z"
           inkscape:connector-curvature="0" />
        <path
           id="path868"
           style="font-style:normal;font-variant:normal;font-weight:normal;font-stretch:normal;font-family:Simplifica;-inkscape-font-specification:Simplifica;fill:#ffffff;fill-opacity:1;stroke-width:0.32172576"
           d="m 88.185853,280.01325 h -1.389855 v 5.55942 0.36033 1.14535 q 0,0.36033 -0.12869,0.66919 -0.115822,0.32172 -0.334595,0.55337 -0.205905,0.24451 -0.489023,0.3732 -0.283119,0.14156 -0.604845,0.14156 v -0.43755 q 0.231643,0 0.437547,-0.10295 0.205905,-0.10295 0.360333,-0.28312 0.154429,-0.1673 0.244512,-0.41181 0.09008,-0.23164 0.09008,-0.50189 v -1.14535 -0.36033 -5.55942 -0.0643 -0.36034 -1.15821 q 0,-0.36033 0.115821,-0.66919 0.128691,-0.32173 0.334595,-0.55337 0.218774,-0.23164 0.501892,-0.36033 0.283119,-0.14156 0.604845,-0.14156 v 0.42468 q -0.231643,0 -0.437547,0.10295 -0.205905,0.10295 -0.360333,0.28312 -0.154429,0.18017 -0.244512,0.41181 -0.09008,0.23164 -0.09008,0.50189 v 1.15821 h 1.389855 z"
           inkscape:connector-curvature="0" />
        <path
           id="path870"
           style="font-style:normal;font-variant:normal;font-weight:normal;font-stretch:normal;font-family:Simplifica;-inkscape-font-specification:Simplifica;fill:#ffffff;fill-opacity:1;stroke-width:0.32172576"
           d="m 90.179547,285.99735 q -0.360333,0 -0.682058,-0.12869 -0.308857,-0.14156 -0.5405,-0.3732 -0.231642,-0.23165 -0.373202,-0.5405 -0.12869,-0.32173 -0.12869,-0.68206 v -3.02422 q 0,-0.36034 0.12869,-0.66919 0.14156,-0.32173 0.373202,-0.55337 0.231643,-0.23164 0.5405,-0.36033 0.321725,-0.14156 0.682058,-0.14156 0.360333,0 0.66919,0.14156 0.321726,0.12869 0.553368,0.36033 0.231643,0.23164 0.360333,0.55337 0.141559,0.30885 0.141559,0.66919 v 3.02422 q 0,0.36033 -0.141559,0.68206 -0.12869,0.30885 -0.360333,0.5405 -0.231642,0.23164 -0.553368,0.3732 -0.308857,0.12869 -0.66919,0.12869 z m 0,-6.04844 q -0.270249,0 -0.514761,0.10295 -0.231643,0.10295 -0.411809,0.28312 -0.167297,0.16729 -0.27025,0.41181 -0.102952,0.23164 -0.102952,0.50189 v 3.02422 q 0,0.27025 0.102952,0.51476 0.102953,0.23164 0.27025,0.41181 0.180166,0.1673 0.411809,0.27025 0.244512,0.10295 0.514761,0.10295 0.27025,0 0.501892,-0.10295 0.244512,-0.10295 0.411809,-0.27025 0.180167,-0.18017 0.283119,-0.41181 0.102952,-0.24451 0.102952,-0.51476 v -3.02422 q 0,-0.27025 -0.102952,-0.50189 -0.102952,-0.24452 -0.283119,-0.41181 -0.167297,-0.18017 -0.411809,-0.28312 -0.231642,-0.10295 -0.501892,-0.10295 z"
           inkscape:connector-curvature="0" />
        <path
           id="path872"
           style="font-style:normal;font-variant:normal;font-weight:normal;font-stretch:normal;font-family:Simplifica;-inkscape-font-specification:Simplifica;fill:#ffffff;fill-opacity:1;stroke-width:0.32172576"
           d="m 95.328766,279.52423 v 0.42468 h -0.501892 q -0.27025,0 -0.501892,0.10295 -0.231643,0.10295 -0.411809,0.28312 -0.180167,0.16729 -0.283119,0.41181 -0.102952,0.23164 -0.102952,0.50189 v 1.50567 3.17865 h -0.424678 v -3.17865 -1.50567 -1.23543 h -0.424678 v -0.42468 h 0.424678 0.424678 v 0.42468 0.10295 q 0.489023,-0.56623 1.261165,-0.59197 z"
           inkscape:connector-curvature="0" />
        <path
           id="path874"
           style="font-style:normal;font-variant:normal;font-weight:normal;font-stretch:normal;font-family:Simplifica;-inkscape-font-specification:Simplifica;fill:#ffffff;fill-opacity:1;stroke-width:0.32172576"
           d="m 101.96818,285.933 -0.60484,-2.72823 h -2.496592 l -0.604844,2.72823 h -0.437547 l 1.930354,-8.69946 h 0.720669 l 1.93035,8.69946 z m -3.011348,-3.15291 h 2.316428 l -1.15822,-5.19909 z"
           inkscape:connector-curvature="0" />
        <path
           id="path876"
           style="font-style:normal;font-variant:normal;font-weight:normal;font-stretch:normal;font-family:Simplifica;-inkscape-font-specification:Simplifica;fill:#ffffff;fill-opacity:1;stroke-width:0.32172576"
           d="m 104.65721,279.52423 q 0.36033,0 0.66919,0.14156 0.32172,0.12869 0.55337,0.36033 0.23164,0.23164 0.36033,0.55337 0.14156,0.30885 0.14156,0.66919 v 1.50567 3.17865 h -0.42468 v -3.17865 -1.50567 q 0,-0.27025 -0.10295,-0.50189 -0.10295,-0.24452 -0.28312,-0.41181 -0.1673,-0.18017 -0.41181,-0.28312 -0.23164,-0.10295 -0.50189,-0.10295 -0.27025,0 -0.51476,0.10295 -0.23165,0.10295 -0.41181,0.28312 -0.1673,0.16729 -0.27025,0.41181 -0.10295,0.23164 -0.10295,0.50189 v 1.50567 3.17865 h -0.42468 v -3.17865 -1.50567 -1.66011 h 0.42468 v 0.52763 q 0.24451,-0.28312 0.5791,-0.43754 0.3346,-0.15443 0.72067,-0.15443 z"
           inkscape:connector-curvature="0" />
        <path
           id="path878"
           style="font-style:normal;font-variant:normal;font-weight:normal;font-stretch:normal;font-family:Simplifica;-inkscape-font-specification:Simplifica;fill:#ffffff;fill-opacity:1;stroke-width:0.32172576"
           d="m 110.72998,276.70591 v 4.54277 3.02422 1.6601 h -0.42468 v -0.52763 q -0.24451,0.27025 -0.57911,0.43755 -0.33459,0.15443 -0.72066,0.15443 -0.36033,0 -0.68206,-0.12869 -0.30886,-0.14156 -0.5405,-0.3732 -0.23164,-0.23165 -0.3732,-0.5405 -0.12869,-0.32173 -0.12869,-0.68206 v -3.02422 q 0,-0.36034 0.12869,-0.66919 0.14156,-0.32173 0.3732,-0.55337 0.23164,-0.23164 0.5405,-0.36033 0.32173,-0.14156 0.68206,-0.14156 0.38607,0 0.72066,0.15443 0.3346,0.15442 0.57911,0.43754 v -3.41029 z m -1.72445,8.86676 q 0.27025,0 0.50189,-0.10295 0.24451,-0.10295 0.41181,-0.27025 0.18017,-0.18017 0.28312,-0.41181 0.10295,-0.24451 0.10295,-0.51476 v -3.02422 q 0,-0.27025 -0.10295,-0.50189 -0.10295,-0.24452 -0.28312,-0.41181 -0.1673,-0.18017 -0.41181,-0.28312 -0.23164,-0.10295 -0.50189,-0.10295 -0.27025,0 -0.51476,0.10295 -0.23165,0.10295 -0.41181,0.28312 -0.1673,0.16729 -0.27025,0.41181 -0.10295,0.23164 -0.10295,0.50189 v 3.02422 q 0,0.27025 0.10295,0.51476 0.10295,0.23164 0.27025,0.41181 0.18016,0.1673 0.41181,0.27025 0.24451,0.10295 0.51476,0.10295 z"
           inkscape:connector-curvature="0" />
        <path
           id="path880"
           style="font-style:normal;font-variant:normal;font-weight:normal;font-stretch:normal;font-family:Simplifica;-inkscape-font-specification:Simplifica;fill:#ffffff;fill-opacity:1;stroke-width:0.32172576"
           d="m 114.28043,279.52423 v 0.42468 h -0.5019 q -0.27025,0 -0.50189,0.10295 -0.23164,0.10295 -0.41181,0.28312 -0.18016,0.16729 -0.28312,0.41181 -0.10295,0.23164 -0.10295,0.50189 v 1.50567 3.17865 h -0.42468 v -3.17865 -1.50567 -1.23543 h -0.42467 v -0.42468 h 0.42467 0.42468 v 0.42468 0.10295 q 0.48903,-0.56623 1.26117,-0.59197 z"
           inkscape:connector-curvature="0" />
        <path
           id="path882"
           style="font-style:normal;font-variant:normal;font-weight:normal;font-stretch:normal;font-family:Simplifica;-inkscape-font-specification:Simplifica;fill:#ffffff;fill-opacity:1;stroke-width:0.32172576"
           d="m 116.52084,285.99735 q -0.36033,0 -0.68206,-0.12869 -0.30885,-0.14156 -0.5405,-0.3732 -0.23164,-0.23165 -0.3732,-0.5405 -0.12869,-0.32173 -0.12869,-0.68206 v -3.02422 q 0,-0.36034 0.12869,-0.66919 0.14156,-0.32173 0.3732,-0.55337 0.23165,-0.23164 0.5405,-0.36033 0.32173,-0.14156 0.68206,-0.14156 0.36033,0 0.66919,0.14156 0.32173,0.12869 0.55337,0.36033 0.23164,0.23164 0.36033,0.55337 0.14156,0.30885 0.14156,0.66919 v 3.02422 q 0,0.36033 -0.14156,0.68206 -0.12869,0.30885 -0.36033,0.5405 -0.23164,0.23164 -0.55337,0.3732 -0.30886,0.12869 -0.66919,0.12869 z m 0,-6.04844 q -0.27025,0 -0.51476,0.10295 -0.23164,0.10295 -0.41181,0.28312 -0.1673,0.16729 -0.27025,0.41181 -0.10295,0.23164 -0.10295,0.50189 v 3.02422 q 0,0.27025 0.10295,0.51476 0.10295,0.23164 0.27025,0.41181 0.18017,0.1673 0.41181,0.27025 0.24451,0.10295 0.51476,0.10295 0.27025,0 0.50189,-0.10295 0.24451,-0.10295 0.41181,-0.27025 0.18017,-0.18017 0.28312,-0.41181 0.10295,-0.24451 0.10295,-0.51476 v -3.02422 q 0,-0.27025 -0.10295,-0.50189 -0.10295,-0.24452 -0.28312,-0.41181 -0.1673,-0.18017 -0.41181,-0.28312 -0.23164,-0.10295 -0.50189,-0.10295 z"
           inkscape:connector-curvature="0" />
        <path
           id="path884"
           style="font-style:normal;font-variant:normal;font-weight:normal;font-stretch:normal;font-family:Simplifica;-inkscape-font-specification:Simplifica;fill:#ffffff;fill-opacity:1;stroke-width:0.32172576"
           d="m 119.5694,279.48562 h 0.43754 v 0.43755 5.91975 h -0.43754 v -5.91975 h -0.42468 v -0.43755 z m 0.11582,-1.46707 q -0.14156,0 -0.23165,-0.0901 -0.0901,-0.0901 -0.0901,-0.23164 0,-0.14156 0.0901,-0.23165 0.0901,-0.0901 0.23165,-0.0901 0.12869,0 0.21877,0.0901 0.10295,0.0901 0.10295,0.23165 0,0.14155 -0.10295,0.23164 -0.0901,0.0901 -0.21877,0.0901 z"
           inkscape:connector-curvature="0" />
        <path
           id="path886"
           style="font-style:normal;font-variant:normal;font-weight:normal;font-stretch:normal;font-family:Simplifica;-inkscape-font-specification:Simplifica;fill:#ffffff;fill-opacity:1;stroke-width:0.32172576"
           d="m 124.35306,276.70591 v 4.54277 3.02422 1.6601 h -0.42468 v -0.52763 q -0.24451,0.27025 -0.57911,0.43755 -0.33459,0.15443 -0.72066,0.15443 -0.36034,0 -0.68206,-0.12869 -0.30886,-0.14156 -0.5405,-0.3732 -0.23164,-0.23165 -0.3732,-0.5405 -0.12869,-0.32173 -0.12869,-0.68206 v -3.02422 q 0,-0.36034 0.12869,-0.66919 0.14156,-0.32173 0.3732,-0.55337 0.23164,-0.23164 0.5405,-0.36033 0.32172,-0.14156 0.68206,-0.14156 0.38607,0 0.72066,0.15443 0.3346,0.15442 0.57911,0.43754 v -3.41029 z m -1.72445,8.86676 q 0.27025,0 0.50189,-0.10295 0.24451,-0.10295 0.41181,-0.27025 0.18016,-0.18017 0.28312,-0.41181 0.10295,-0.24451 0.10295,-0.51476 v -3.02422 q 0,-0.27025 -0.10295,-0.50189 -0.10296,-0.24452 -0.28312,-0.41181 -0.1673,-0.18017 -0.41181,-0.28312 -0.23164,-0.10295 -0.50189,-0.10295 -0.27025,0 -0.51477,0.10295 -0.23164,0.10295 -0.4118,0.28312 -0.1673,0.16729 -0.27025,0.41181 -0.10296,0.23164 -0.10296,0.50189 v 3.02422 q 0,0.27025 0.10296,0.51476 0.10295,0.23164 0.27025,0.41181 0.18016,0.1673 0.4118,0.27025 0.24452,0.10295 0.51477,0.10295 z"
           inkscape:connector-curvature="0" />
        <path
           id="path888"
           style="font-style:normal;font-variant:normal;font-weight:normal;font-stretch:normal;font-family:Simplifica;-inkscape-font-specification:Simplifica;fill:#ffffff;fill-opacity:1;stroke-width:0.32172576"
           d="m 131.12458,285.933 -0.60484,-2.72823 h -2.4966 l -0.60484,2.72823 h -0.43755 l 1.93036,-8.69946 h 0.72066 l 1.93036,8.69946 z m -3.01135,-3.15291 h 2.31642 l -1.15821,-5.19909 z"
           inkscape:connector-curvature="0" />
        <path
           id="path890"
           style="font-style:normal;font-variant:normal;font-weight:normal;font-stretch:normal;font-family:Simplifica;-inkscape-font-specification:Simplifica;fill:#ffffff;fill-opacity:1;stroke-width:0.32172576"
           d="m 133.8136,279.52423 q 0.36034,0 0.66919,0.14156 0.32173,0.12869 0.55337,0.36033 0.23164,0.23164 0.36033,0.55337 0.14156,0.30885 0.14156,0.66919 v 3.02422 q 0,0.36033 -0.14156,0.68206 -0.12869,0.30885 -0.36033,0.5405 -0.23164,0.23164 -0.55337,0.3732 -0.30885,0.12869 -0.66919,0.12869 -0.38607,0 -0.72066,-0.15443 -0.3346,-0.1673 -0.57911,-0.43755 v 3.4103 h -0.42468 v -4.54277 -3.02422 -1.66011 h 0.42468 v 0.52763 q 0.24451,-0.28312 0.57911,-0.43754 0.33459,-0.15443 0.72066,-0.15443 z m 1.29978,1.72445 q 0,-0.27025 -0.10296,-0.50189 -0.10295,-0.24452 -0.28312,-0.41181 -0.16729,-0.18017 -0.4118,-0.28312 -0.23165,-0.10295 -0.5019,-0.10295 -0.27025,0 -0.51476,0.10295 -0.23164,0.10295 -0.41181,0.28312 -0.16729,0.16729 -0.27025,0.41181 -0.10295,0.23164 -0.10295,0.50189 v 3.02422 q 0,0.27025 0.10295,0.51476 0.10296,0.23164 0.27025,0.41181 0.18017,0.1673 0.41181,0.27025 0.24451,0.10295 0.51476,0.10295 0.27025,0 0.5019,-0.10295 0.24451,-0.10295 0.4118,-0.27025 0.18017,-0.18017 0.28312,-0.41181 0.10296,-0.24451 0.10296,-0.51476 z"
           inkscape:connector-curvature="0" />
        <path
           id="path892"
           style="font-style:normal;font-variant:normal;font-weight:normal;font-stretch:normal;font-family:Simplifica;-inkscape-font-specification:Simplifica;fill:#ffffff;fill-opacity:1;stroke-width:0.32172576"
           d="m 138.16193,279.52423 q 0.36033,0 0.66919,0.14156 0.32173,0.12869 0.55337,0.36033 0.23164,0.23164 0.36033,0.55337 0.14156,0.30885 0.14156,0.66919 v 3.02422 q 0,0.36033 -0.14156,0.68206 -0.12869,0.30885 -0.36033,0.5405 -0.23164,0.23164 -0.55337,0.3732 -0.30886,0.12869 -0.66919,0.12869 -0.38607,0 -0.72066,-0.15443 -0.3346,-0.1673 -0.57911,-0.43755 v 3.4103 h -0.42468 v -4.54277 -3.02422 -1.66011 h 0.42468 v 0.52763 q 0.24451,-0.28312 0.57911,-0.43754 0.33459,-0.15443 0.72066,-0.15443 z m 1.29977,1.72445 q 0,-0.27025 -0.10295,-0.50189 -0.10295,-0.24452 -0.28312,-0.41181 -0.1673,-0.18017 -0.41181,-0.28312 -0.23164,-0.10295 -0.50189,-0.10295 -0.27025,0 -0.51476,0.10295 -0.23164,0.10295 -0.41181,0.28312 -0.1673,0.16729 -0.27025,0.41181 -0.10295,0.23164 -0.10295,0.50189 v 3.02422 q 0,0.27025 0.10295,0.51476 0.10295,0.23164 0.27025,0.41181 0.18017,0.1673 0.41181,0.27025 0.24451,0.10295 0.51476,0.10295 0.27025,0 0.50189,-0.10295 0.24451,-0.10295 0.41181,-0.27025 0.18017,-0.18017 0.28312,-0.41181 0.10295,-0.24451 0.10295,-0.51476 z"
           inkscape:connector-curvature="0" />
        <path
           id="path894"
           style="font-style:normal;font-variant:normal;font-weight:normal;font-stretch:normal;font-family:Simplifica;-inkscape-font-specification:Simplifica;fill:#ffffff;fill-opacity:1;stroke-width:0.32172576"
           d="m 142.61321,282.56132 q 0.28312,0.14156 0.56624,0.30886 0.29599,0.15442 0.52763,0.36033 0.23164,0.2059 0.3732,0.46328 0.15443,0.24451 0.15443,0.57911 0,0.36033 -0.14156,0.68206 -0.12869,0.30885 -0.36033,0.5405 -0.23165,0.23164 -0.55337,0.3732 -0.30886,0.12869 -0.66919,0.12869 -0.36033,0 -0.68206,-0.12869 -0.30886,-0.14156 -0.5405,-0.3732 -0.23164,-0.23165 -0.3732,-0.5405 -0.12869,-0.32173 -0.12869,-0.68206 h 0.42468 q 0,0.27025 0.10295,0.51476 0.10295,0.23164 0.27025,0.41181 0.18016,0.1673 0.41181,0.27025 0.24451,0.10295 0.51476,0.10295 0.27025,0 0.50189,-0.10295 0.24451,-0.10295 0.41181,-0.27025 0.18017,-0.18017 0.28312,-0.41181 0.10295,-0.24451 0.10295,-0.51476 0,-0.23164 -0.11582,-0.41181 -0.11582,-0.19303 -0.30886,-0.34746 -0.19303,-0.15443 -0.45041,-0.28312 -0.24451,-0.14156 -0.51476,-0.28312 -0.29599,-0.14156 -0.59198,-0.29599 -0.28312,-0.1673 -0.51476,-0.36033 -0.23164,-0.20591 -0.38607,-0.45042 -0.14156,-0.25738 -0.14156,-0.59197 0,-0.36034 0.12869,-0.66919 0.14156,-0.32173 0.3732,-0.55337 0.23164,-0.23164 0.5405,-0.36033 0.32173,-0.14156 0.68206,-0.14156 0.36033,0 0.66919,0.14156 0.32172,0.12869 0.55337,0.36033 0.23164,0.23164 0.36033,0.55337 0.14156,0.30885 0.14156,0.66919 h -0.42468 q 0,-0.27025 -0.10295,-0.50189 -0.10295,-0.24452 -0.28312,-0.41181 -0.1673,-0.18017 -0.41181,-0.28312 -0.23164,-0.10295 -0.50189,-0.10295 -0.27025,0 -0.51476,0.10295 -0.23165,0.10295 -0.41181,0.28312 -0.1673,0.16729 -0.27025,0.41181 -0.10295,0.23164 -0.10295,0.50189 0,0.23164 0.11582,0.42468 0.11582,0.18016 0.30885,0.33459 0.20591,0.15443 0.45042,0.29599 0.25738,0.12869 0.52763,0.25738 z"
           inkscape:connector-curvature="0" />
        <path
           id="path896"
           style="font-style:normal;font-variant:normal;font-weight:normal;font-stretch:normal;font-family:Simplifica;-inkscape-font-specification:Simplifica;fill:#ffffff;fill-opacity:1;stroke-width:0.32172576"
           d="m 148.8957,277.23354 q 0.38607,0 0.72067,0.14156 0.34746,0.14156 0.59197,0.39894 0.25739,0.24451 0.39894,0.57911 0.15443,0.33459 0.15443,0.72066 v 5.01892 q 0,0.38607 -0.15443,0.72067 -0.14155,0.33459 -0.39894,0.59197 -0.24451,0.24452 -0.59197,0.38608 -0.3346,0.14155 -0.72067,0.14155 h -1.35124 -0.10296 -0.32172 v -8.69946 h 0.32172 0.10296 z m 1.42847,1.84027 q 0,-0.29599 -0.11583,-0.55337 -0.11582,-0.25738 -0.30885,-0.45041 -0.19304,-0.19304 -0.45042,-0.29599 -0.25738,-0.11582 -0.55337,-0.11582 h -1.35124 v 7.85011 h 1.35124 q 0.29599,0 0.55337,-0.10296 0.25738,-0.11582 0.45042,-0.30885 0.19303,-0.19304 0.30885,-0.45042 0.11583,-0.25738 0.11583,-0.55337 z"
           inkscape:connector-curvature="0" />
        <path
           id="path898"
           style="font-style:normal;font-variant:normal;font-weight:normal;font-stretch:normal;font-family:Simplifica;-inkscape-font-specification:Simplifica;fill:#ffffff;fill-opacity:1;stroke-width:0.32172576"
           d="m 154.14004,282.40689 q -0.11582,0.0386 -0.38607,0.15443 -0.27025,0.10295 -0.59198,0.21877 -0.30885,0.11582 -0.60484,0.23164 -0.29599,0.11583 -0.46329,0.1673 v 1.09387 q 0,0.27025 0.10296,0.51476 0.10295,0.23164 0.27025,0.41181 0.18016,0.1673 0.4118,0.27025 0.24452,0.10295 0.51477,0.10295 0.27025,0 0.50189,-0.10295 0.24451,-0.10295 0.41181,-0.27025 0.18016,-0.18017 0.28312,-0.41181 0.10295,-0.24451 0.10295,-0.51476 h 0.42468 q 0,0.36033 -0.14156,0.68206 -0.12869,0.30885 -0.36034,0.5405 -0.23164,0.23164 -0.55336,0.3732 -0.30886,0.12869 -0.66919,0.12869 -0.36034,0 -0.68206,-0.12869 -0.30886,-0.14156 -0.5405,-0.3732 -0.23164,-0.23165 -0.3732,-0.5405 -0.12869,-0.32173 -0.12869,-0.68206 v -3.02422 q 0,-0.36034 0.12869,-0.66919 0.14156,-0.32173 0.3732,-0.55337 0.23164,-0.23164 0.5405,-0.36033 0.32172,-0.14156 0.68206,-0.14156 0.36033,0 0.66919,0.14156 0.32172,0.12869 0.55336,0.36033 0.23165,0.23164 0.36034,0.55337 0.14156,0.30885 0.14156,0.65632 v 0.0129 q 0,0.79788 -0.97805,1.15821 z m -0.7464,-2.45798 q -0.27025,0 -0.51477,0.10295 -0.23164,0.10295 -0.4118,0.28312 -0.1673,0.16729 -0.27025,0.41181 -0.10296,0.23164 -0.10296,0.50189 v 1.47994 q 0.19304,-0.0772 0.47616,-0.18017 0.28312,-0.11582 0.56624,-0.21877 0.28311,-0.10296 0.51476,-0.19304 0.24451,-0.0901 0.34746,-0.12869 0.23164,-0.0901 0.46329,-0.27025 0.23164,-0.18017 0.23164,-0.50189 0,-0.27025 -0.10295,-0.50189 -0.10296,-0.23165 -0.28312,-0.39894 -0.1673,-0.18017 -0.41181,-0.28312 -0.23164,-0.10295 -0.50189,-0.10295 z"
           inkscape:connector-curvature="0" />
        <path
           id="path900"
           style="font-style:normal;font-variant:normal;font-weight:normal;font-stretch:normal;font-family:Simplifica;-inkscape-font-specification:Simplifica;fill:#ffffff;fill-opacity:1;stroke-width:0.32172576"
           d="m 159.26051,279.58857 h 0.45041 l -1.67297,6.34443 h -0.1673 -0.27025 -0.16729 l -1.67298,-6.34443 h 0.43755 l 1.53141,5.82967 z"
           inkscape:connector-curvature="0" />
        <path
           id="path902"
           style="font-style:normal;font-variant:normal;font-weight:normal;font-stretch:normal;font-family:Simplifica;-inkscape-font-specification:Simplifica;fill:#ffffff;fill-opacity:1;stroke-width:0.32172576"
           d="m 162.68588,282.40689 q -0.11582,0.0386 -0.38607,0.15443 -0.27025,0.10295 -0.59198,0.21877 -0.30886,0.11582 -0.60484,0.23164 -0.29599,0.11583 -0.46329,0.1673 v 1.09387 q 0,0.27025 0.10295,0.51476 0.10296,0.23164 0.27025,0.41181 0.18017,0.1673 0.41181,0.27025 0.24451,0.10295 0.51476,0.10295 0.27025,0 0.5019,-0.10295 0.24451,-0.10295 0.4118,-0.27025 0.18017,-0.18017 0.28312,-0.41181 0.10296,-0.24451 0.10296,-0.51476 h 0.42467 q 0,0.36033 -0.14156,0.68206 -0.12869,0.30885 -0.36033,0.5405 -0.23164,0.23164 -0.55337,0.3732 -0.30885,0.12869 -0.66919,0.12869 -0.36033,0 -0.68206,-0.12869 -0.30885,-0.14156 -0.54049,-0.3732 -0.23165,-0.23165 -0.37321,-0.5405 -0.12869,-0.32173 -0.12869,-0.68206 v -3.02422 q 0,-0.36034 0.12869,-0.66919 0.14156,-0.32173 0.37321,-0.55337 0.23164,-0.23164 0.54049,-0.36033 0.32173,-0.14156 0.68206,-0.14156 0.36034,0 0.66919,0.14156 0.32173,0.12869 0.55337,0.36033 0.23164,0.23164 0.36033,0.55337 0.14156,0.30885 0.14156,0.65632 v 0.0129 q 0,0.79788 -0.97804,1.15821 z m -0.74641,-2.45798 q -0.27025,0 -0.51476,0.10295 -0.23164,0.10295 -0.41181,0.28312 -0.16729,0.16729 -0.27025,0.41181 -0.10295,0.23164 -0.10295,0.50189 v 1.47994 q 0.19304,-0.0772 0.47616,-0.18017 0.28311,-0.11582 0.56623,-0.21877 0.28312,-0.10296 0.51476,-0.19304 0.24452,-0.0901 0.34747,-0.12869 0.23164,-0.0901 0.46328,-0.27025 0.23165,-0.18017 0.23165,-0.50189 0,-0.27025 -0.10296,-0.50189 -0.10295,-0.23165 -0.28312,-0.39894 -0.16729,-0.18017 -0.4118,-0.28312 -0.23165,-0.10295 -0.5019,-0.10295 z"
           inkscape:connector-curvature="0" />
        <path
           id="path904"
           style="font-style:normal;font-variant:normal;font-weight:normal;font-stretch:normal;font-family:Simplifica;-inkscape-font-specification:Simplifica;fill:#ffffff;fill-opacity:1;stroke-width:0.32172576"
           d="m 164.91262,285.933 h -0.42468 v -9.22709 h 0.42468 z"
           inkscape:connector-curvature="0" />
        <path
           id="path906"
           style="font-style:normal;font-variant:normal;font-weight:normal;font-stretch:normal;font-family:Simplifica;-inkscape-font-specification:Simplifica;fill:#ffffff;fill-opacity:1;stroke-width:0.32172576"
           d="m 167.67022,285.99735 q -0.36034,0 -0.68206,-0.12869 -0.30886,-0.14156 -0.5405,-0.3732 -0.23164,-0.23165 -0.3732,-0.5405 -0.12869,-0.32173 -0.12869,-0.68206 v -3.02422 q 0,-0.36034 0.12869,-0.66919 0.14156,-0.32173 0.3732,-0.55337 0.23164,-0.23164 0.5405,-0.36033 0.32172,-0.14156 0.68206,-0.14156 0.36033,0 0.66919,0.14156 0.32172,0.12869 0.55336,0.36033 0.23165,0.23164 0.36034,0.55337 0.14156,0.30885 0.14156,0.66919 v 3.02422 q 0,0.36033 -0.14156,0.68206 -0.12869,0.30885 -0.36034,0.5405 -0.23164,0.23164 -0.55336,0.3732 -0.30886,0.12869 -0.66919,0.12869 z m 0,-6.04844 q -0.27025,0 -0.51476,0.10295 -0.23165,0.10295 -0.41181,0.28312 -0.1673,0.16729 -0.27025,0.41181 -0.10296,0.23164 -0.10296,0.50189 v 3.02422 q 0,0.27025 0.10296,0.51476 0.10295,0.23164 0.27025,0.41181 0.18016,0.1673 0.41181,0.27025 0.24451,0.10295 0.51476,0.10295 0.27025,0 0.50189,-0.10295 0.24451,-0.10295 0.41181,-0.27025 0.18016,-0.18017 0.28312,-0.41181 0.10295,-0.24451 0.10295,-0.51476 v -3.02422 q 0,-0.27025 -0.10295,-0.50189 -0.10296,-0.24452 -0.28312,-0.41181 -0.1673,-0.18017 -0.41181,-0.28312 -0.23164,-0.10295 -0.50189,-0.10295 z"
           inkscape:connector-curvature="0" />
        <path
           id="path908"
           style="font-style:normal;font-variant:normal;font-weight:normal;font-stretch:normal;font-family:Simplifica;-inkscape-font-specification:Simplifica;fill:#ffffff;fill-opacity:1;stroke-width:0.32172576"
           d="m 172.01853,279.52423 q 0.36033,0 0.66919,0.14156 0.32172,0.12869 0.55337,0.36033 0.23164,0.23164 0.36033,0.55337 0.14156,0.30885 0.14156,0.66919 v 3.02422 q 0,0.36033 -0.14156,0.68206 -0.12869,0.30885 -0.36033,0.5405 -0.23165,0.23164 -0.55337,0.3732 -0.30886,0.12869 -0.66919,0.12869 -0.38607,0 -0.72067,-0.15443 -0.33459,-0.1673 -0.5791,-0.43755 v 3.4103 h -0.42468 v -4.54277 -3.02422 -1.66011 h 0.42468 v 0.52763 q 0.24451,-0.28312 0.5791,-0.43754 0.3346,-0.15443 0.72067,-0.15443 z m 1.29977,1.72445 q 0,-0.27025 -0.10295,-0.50189 -0.10295,-0.24452 -0.28312,-0.41181 -0.1673,-0.18017 -0.41181,-0.28312 -0.23164,-0.10295 -0.50189,-0.10295 -0.27025,0 -0.51476,0.10295 -0.23164,0.10295 -0.41181,0.28312 -0.1673,0.16729 -0.27025,0.41181 -0.10295,0.23164 -0.10295,0.50189 v 3.02422 q 0,0.27025 0.10295,0.51476 0.10295,0.23164 0.27025,0.41181 0.18017,0.1673 0.41181,0.27025 0.24451,0.10295 0.51476,0.10295 0.27025,0 0.50189,-0.10295 0.24451,-0.10295 0.41181,-0.27025 0.18017,-0.18017 0.28312,-0.41181 0.10295,-0.24451 0.10295,-0.51476 z"
           inkscape:connector-curvature="0" />
        <path
           id="path910"
           style="font-style:normal;font-variant:normal;font-weight:normal;font-stretch:normal;font-family:Simplifica;-inkscape-font-specification:Simplifica;fill:#ffffff;fill-opacity:1;stroke-width:0.32172576"
           d="m 179.39108,279.52423 q 0.36033,0 0.66919,0.14156 0.32172,0.12869 0.55337,0.36033 0.23164,0.23164 0.36033,0.55337 0.14156,0.30885 0.14156,0.66919 v 1.50567 3.17865 h -0.42468 v -3.17865 -1.50567 q 0,-0.27025 -0.10295,-0.50189 -0.10295,-0.24452 -0.28312,-0.41181 -0.1673,-0.18017 -0.41181,-0.28312 -0.23164,-0.10295 -0.50189,-0.10295 -0.27025,0 -0.50189,0.10295 -0.23165,0.10295 -0.41181,0.28312 -0.18017,0.16729 -0.28312,0.41181 -0.10295,0.23164 -0.10295,0.50189 v 1.50567 3.17865 h -0.42468 v -3.17865 -1.50567 q 0,-0.27025 -0.10295,-0.50189 -0.10296,-0.24452 -0.28312,-0.41181 -0.1673,-0.18017 -0.41181,-0.28312 -0.23164,-0.10295 -0.50189,-0.10295 -0.27025,0 -0.51476,0.10295 -0.23165,0.10295 -0.41181,0.28312 -0.1673,0.16729 -0.27025,0.41181 -0.10296,0.23164 -0.10296,0.50189 v 1.50567 3.17865 h -0.42467 v -3.17865 -1.50567 -1.66011 h 0.42467 v 0.52763 q 0.24452,-0.28312 0.57911,-0.43754 0.3346,-0.15443 0.72067,-0.15443 0.48902,0 0.88796,0.24451 0.41181,0.24451 0.63058,0.64345 0.21878,-0.39894 0.61772,-0.64345 0.39894,-0.24451 0.88796,-0.24451 z"
           inkscape:connector-curvature="0" />
        <path
           id="path912"
           style="font-style:normal;font-variant:normal;font-weight:normal;font-stretch:normal;font-family:Simplifica;-inkscape-font-specification:Simplifica;fill:#ffffff;fill-opacity:1;stroke-width:0.32172576"
           d="m 184.47776,282.40689 q -0.11582,0.0386 -0.38607,0.15443 -0.27025,0.10295 -0.59197,0.21877 -0.30886,0.11582 -0.60485,0.23164 -0.29599,0.11583 -0.46328,0.1673 v 1.09387 q 0,0.27025 0.10295,0.51476 0.10295,0.23164 0.27025,0.41181 0.18016,0.1673 0.41181,0.27025 0.24451,0.10295 0.51476,0.10295 0.27025,0 0.50189,-0.10295 0.24451,-0.10295 0.41181,-0.27025 0.18017,-0.18017 0.28312,-0.41181 0.10295,-0.24451 0.10295,-0.51476 h 0.42468 q 0,0.36033 -0.14156,0.68206 -0.12869,0.30885 -0.36033,0.5405 -0.23165,0.23164 -0.55337,0.3732 -0.30886,0.12869 -0.66919,0.12869 -0.36033,0 -0.68206,-0.12869 -0.30886,-0.14156 -0.5405,-0.3732 -0.23164,-0.23165 -0.3732,-0.5405 -0.12869,-0.32173 -0.12869,-0.68206 v -3.02422 q 0,-0.36034 0.12869,-0.66919 0.14156,-0.32173 0.3732,-0.55337 0.23164,-0.23164 0.5405,-0.36033 0.32173,-0.14156 0.68206,-0.14156 0.36033,0 0.66919,0.14156 0.32172,0.12869 0.55337,0.36033 0.23164,0.23164 0.36033,0.55337 0.14156,0.30885 0.14156,0.65632 v 0.0129 q 0,0.79788 -0.97805,1.15821 z m -0.7464,-2.45798 q -0.27025,0 -0.51476,0.10295 -0.23165,0.10295 -0.41181,0.28312 -0.1673,0.16729 -0.27025,0.41181 -0.10295,0.23164 -0.10295,0.50189 v 1.47994 q 0.19303,-0.0772 0.47615,-0.18017 0.28312,-0.11582 0.56624,-0.21877 0.28312,-0.10296 0.51476,-0.19304 0.24451,-0.0901 0.34746,-0.12869 0.23165,-0.0901 0.46329,-0.27025 0.23164,-0.18017 0.23164,-0.50189 0,-0.27025 -0.10295,-0.50189 -0.10295,-0.23165 -0.28312,-0.39894 -0.1673,-0.18017 -0.41181,-0.28312 -0.23164,-0.10295 -0.50189,-0.10295 z"
           inkscape:connector-curvature="0" />
        <path
           id="path914"
           style="font-style:normal;font-variant:normal;font-weight:normal;font-stretch:normal;font-family:Simplifica;-inkscape-font-specification:Simplifica;fill:#ffffff;fill-opacity:1;stroke-width:0.32172576"
           d="m 188.07969,279.52423 q 0.36033,0 0.66919,0.14156 0.32172,0.12869 0.55336,0.36033 0.23165,0.23164 0.36034,0.55337 0.14156,0.30885 0.14156,0.66919 v 1.50567 3.17865 h -0.42468 v -3.17865 -1.50567 q 0,-0.27025 -0.10295,-0.50189 -0.10296,-0.24452 -0.28312,-0.41181 -0.1673,-0.18017 -0.41181,-0.28312 -0.23164,-0.10295 -0.50189,-0.10295 -0.27025,0 -0.51477,0.10295 -0.23164,0.10295 -0.4118,0.28312 -0.1673,0.16729 -0.27025,0.41181 -0.10296,0.23164 -0.10296,0.50189 v 1.50567 3.17865 h -0.42467 v -3.17865 -1.50567 -1.66011 h 0.42467 v 0.52763 q 0.24452,-0.28312 0.57911,-0.43754 0.3346,-0.15443 0.72067,-0.15443 z"
           inkscape:connector-curvature="0" />
        <path
           id="path916"
           style="font-style:normal;font-variant:normal;font-weight:normal;font-stretch:normal;font-family:Simplifica;-inkscape-font-specification:Simplifica;fill:#ffffff;fill-opacity:1;stroke-width:0.32172576"
           d="m 191.12824,282.75435 v 1.51855 q 0,0.27025 0.0901,0.51476 0.0901,0.23164 0.24452,0.41181 0.15442,0.1673 0.36033,0.27025 0.2059,0.10295 0.43755,0.10295 v 0.42468 q -0.32173,0 -0.60485,-0.12869 -0.28312,-0.14156 -0.50189,-0.3732 -0.2059,-0.23165 -0.3346,-0.5405 -0.11582,-0.32173 -0.11582,-0.68206 v -1.51855 -2.7411 -0.42468 -1.80166 h 0.42468 v 1.80166 h 1.38986 v 0.42468 h -1.38986 z"
           inkscape:connector-curvature="0" />
      </g>
    </g>
    <g
       id="g868"
       transform="translate(0,-74.835471)">
      <g
         aria-label="Radiant"
         style="font-style:normal;font-variant:normal;font-weight:normal;font-stretch:normal;font-size:41.79237747px;line-height:1.25;font-family:Ailerons;-inkscape-font-specification:Ailerons;letter-spacing:0px;word-spacing:0px;fill:#ffffff;fill-opacity:1;stroke:none;stroke-width:1.04480934"
         id="text849">
        <path
           d="m 34.023365,141.4144 v -11.20036 c 0,0 0.08358,-2.1732 -1.086602,-2.7583 1.211979,-0.29254 1.086602,-2.59112 1.086602,-2.59112 v -9.02716 c 0,-2.04782 -1.671696,-3.67773 -3.67773,-3.67773 h -5.474801 v 29.25467 h 3.009051 v -12.57951 h 1.58811 c 0.794056,0 1.546318,0.45972 1.546318,1.88066 v 10.69885 z m -6.14348,-15.42139 v -11.03319 h 1.58811 c 0.794056,0 1.546318,0.41793 1.546318,1.50453 v 7.85697 c 0,1.33735 -0.752262,1.67169 -1.546318,1.67169 z"
           style="font-style:normal;font-variant:normal;font-weight:normal;font-stretch:normal;font-family:Ailerons;-inkscape-font-specification:Ailerons;fill:#ffffff;fill-opacity:1;stroke-width:1.04480934"
           id="path820" />
        <path
           d="m 59.667559,141.4144 h -3.301598 l -2.63292,-20.14393 -2.632919,20.14393 h -3.301598 l 4.429992,-29.25467 h 1.629902 c 1.253772,0 1.462734,0.79406 1.588111,1.58811 z"
           style="font-style:normal;font-variant:normal;font-weight:normal;font-stretch:normal;font-family:Ailerons;-inkscape-font-specification:Ailerons;fill:#ffffff;fill-opacity:1;stroke-width:1.04480934"
           id="path822" />
        <path
           d="m 73.231144,112.15973 v 29.25467 h 5.80914 c 2.047827,0 3.67773,-1.6299 3.719522,-3.67773 v -21.89921 c -0.04179,-2.04782 -1.671695,-3.67773 -3.719522,-3.67773 z m 6.561403,24.74109 c 0,1.1284 -0.752263,1.54632 -1.58811,1.54632 h -1.964242 v -23.27835 h 1.964242 c 0.835847,0 1.58811,0.41792 1.58811,1.50452 z"
           style="font-style:normal;font-variant:normal;font-weight:normal;font-stretch:normal;font-family:Ailerons;-inkscape-font-specification:Ailerons;fill:#ffffff;fill-opacity:1;stroke-width:1.04480934"
           id="path824" />
        <path
           d="m 99.460428,112.15973 v 28.62778 c 0.04179,0.20896 0.167169,0.62689 0.877642,0.62689 h 2.13141 v -28.08448 c 0,-0.50151 -0.33434,-1.17019 -1.21198,-1.17019 z"
           style="font-style:normal;font-variant:normal;font-weight:normal;font-stretch:normal;font-family:Ailerons;-inkscape-font-specification:Ailerons;fill:#ffffff;fill-opacity:1;stroke-width:1.04480934"
           id="path826" />
        <path
           d="m 129.04944,141.4144 h -3.3016 l -2.63292,-20.14393 -2.63292,20.14393 h -3.3016 l 4.42999,-29.25467 h 1.62991 c 1.25377,0 1.46273,0.79406 1.58811,1.58811 z"
           style="font-style:normal;font-variant:normal;font-weight:normal;font-stretch:normal;font-family:Ailerons;-inkscape-font-specification:Ailerons;fill:#ffffff;fill-opacity:1;stroke-width:1.04480934"
           id="path828" />
        <path
           d="m 152.18347,112.15973 h -3.00905 v 16.84233 l -3.09263,-15.21242 c -0.16717,-0.83585 -0.45972,-1.62991 -2.13142,-1.62991 h -1.37914 v 29.25467 h 3.00905 v -16.34082 l 3.21801,14.46016 c 0.12538,0.58509 0.37613,1.88066 2.00603,1.88066 h 1.37915 z"
           style="font-style:normal;font-variant:normal;font-weight:normal;font-stretch:normal;font-family:Ailerons;-inkscape-font-specification:Ailerons;fill:#ffffff;fill-opacity:1;stroke-width:1.04480934"
           id="path830" />
        <path
           d="m 178.32918,112.15973 h -11.95262 c -0.50151,0 -0.91943,0.41793 -0.91943,0.91944 v 2.04782 h 4.22103 v 25.66052 c 0,0.20896 0.12537,0.62689 0.83584,0.62689 h 2.13142 v -25.57694 c 0.0418,-0.37613 0.33433,-0.71047 0.75226,-0.71047 h 2.34037 c 0.96123,0 1.42094,-0.41792 1.58811,-0.79405 z"
           style="font-style:normal;font-variant:normal;font-weight:normal;font-stretch:normal;font-family:Ailerons;-inkscape-font-specification:Ailerons;fill:#ffffff;fill-opacity:1;stroke-width:1.04480934"
           id="path832" />
      </g>
      <path
         inkscape:connector-curvature="0"
         id="path863"
         d="M 24.870833,145.71479 H 178.32918"
         style="fill:#ffffff;stroke:#ffffff;stroke-width:0.36788821px;stroke-linecap:butt;stroke-linejoin:miter;stroke-opacity:1" />
    </g>
  </g>
</svg>
